<svg xmlns="http://www.w3.org/2000/svg" width="120.287" height="117.203" viewBox="0 0 120.287 117.203">
  <g id="Tracé_3" data-name="Tracé 3" transform="translate(-5971.533 -96.225)" fill="#ffb300">
    <path d="M 6009.6162109375 204.4913024902344 L 6016.9453125 185.2959289550781 L 6018.91455078125 180.1385040283203 L 6013.515625 181.2920837402344 L 5990.8662109375 186.1317291259766 L 6018.04931640625 159.4348297119141 L 6020.7373046875 156.7948303222656 L 6017.5625 154.7663726806641 L 5981.80126953125 131.9189605712891 L 6015.947265625 131.9189605712891 L 6018.34423828125 131.9189605712891 L 6018.873046875 129.5813903808594 L 6024.69287109375 103.8761978149414 L 6041.79736328125 130.5388031005859 L 6042.6826171875 131.9189605712891 L 6044.322265625 131.9189605712891 L 6084.8564453125 131.9189605712891 L 6054.509765625 164.0227508544922 L 6053.119140625 165.494140625 L 6053.96337890625 167.3344268798828 C 6054.0048828125 167.4253540039063 6058.18701171875 176.5349426269531 6062.69287109375 185.7530975341797 C 6065.041015625 190.5570526123047 6066.90625 194.2298278808594 6068.400390625 197.0469970703125 C 6060.3046875 193.059814453125 6048.54638671875 187.2064819335938 6040.10498046875 182.986572265625 L 6038.416015625 182.1422576904297 L 6036.92431640625 183.2998657226563 L 6009.6162109375 204.4913024902344 Z" stroke="none"/>
    <path d="M 6026.03662109375 111.5269622802734 L 6021.79931640625 130.2438201904297 L 6020.74072265625 134.9189453125 L 6015.947265625 134.9189453125 L 5992.06884765625 134.9189453125 L 6019.177734375 152.23828125 L 6025.52783203125 156.2952117919922 L 6020.1513671875 161.5751953125 L 6000.33056640625 181.0417175292969 L 6012.888671875 178.3582916259766 L 6023.68603515625 176.0511322021484 L 6019.748046875 186.3659973144531 L 6016.23974609375 195.5540161132813 L 6035.08544921875 180.9297790527344 L 6038.06884765625 178.6144866943359 L 6041.44677734375 180.3032836914063 C 6047.29638671875 183.2277221679688 6054.79931640625 186.9669189453125 6061.54638671875 190.3126525878906 C 6058.8310546875 184.8583374023438 6055.45556640625 177.7828521728516 6051.236328125 168.5852813720703 L 6049.5478515625 164.9046783447266 L 6052.32958984375 161.9619445800781 L 6077.892578125 134.9189453125 L 6044.322265625 134.9189453125 L 6041.04296875 134.9189453125 L 6039.27197265625 132.1586761474609 L 6026.03662109375 111.5269622802734 M 6023.34912109375 96.22544860839844 L 6044.322265625 128.9189453125 L 6091.8203125 128.9189453125 L 6056.68994140625 166.0835723876953 C 6056.68994140625 166.0835723876953 6073.31494140625 202.3251342773438 6076.39892578125 204.1756896972656 C 6076.533203125 204.2562255859375 6076.58447265625 204.2946319580078 6076.5595703125 204.2946319580078 C 6076.0166015625 204.2946319580078 6038.763671875 185.6699523925781 6038.763671875 185.6699523925781 L 6002.99267578125 213.4286193847656 L 6014.142578125 184.225830078125 L 5981.40234375 191.2216949462891 L 6015.947265625 157.2944641113281 L 5971.533203125 128.9189453125 L 6015.947265625 128.9189453125 L 6023.34912109375 96.22544860839844 Z" stroke="none" fill="red"/>
  </g>
</svg>
